{
	"asset":{
		"generator":"Khronos glTF Blender I/O v4.5.14",
		"version":"2.0"
	},
	"extensionsUsed":[
		"KHR_materials_specular"
	],
	"scene":0,
	"scenes":[
		{
			"name":"Scene",
			"nodes":[
				0
			]
		}
	],
	"nodes":[
		{
			"mesh":0,
			"name":"Chapel_Lsp_Altar_and_Beam_Photos_1_mill_4k",
			"rotation":[
				0,
				0.16181159019470215,
				0,
				0.9868216514587402
			]
		}
	],
	"materials":[
		{
			"doubleSided":true,
			"extensions":{
				"KHR_materials_specular":{
					"specularColorFactor":[
						2.0,
						2.0,
						2.0
					]
				}
			},
			"name":"material_0",
			"pbrMetallicRoughness":{
				"baseColorTexture":{
					"index":0
				},
				"metallicFactor":0
			}
		},
		{
			"doubleSided":true,
			"extensions":{
				"KHR_materials_specular":{
					"specularColorFactor":[
						2.0,
						2.0,
						2.0
					]
				}
			},
			"name":"material_1",
			"pbrMetallicRoughness":{
				"baseColorTexture":{
					"index":1
				},
				"metallicFactor":0
			}
		},
		{
			"doubleSided":true,
			"extensions":{
				"KHR_materials_specular":{
					"specularColorFactor":[
						2.0,
						2.0,
						2.0
					]
				}
			},
			"name":"material_2",
			"pbrMetallicRoughness":{
				"baseColorTexture":{
					"index":2
				},
				"metallicFactor":0
			}
		},
		{
			"doubleSided":true,
			"extensions":{
				"KHR_materials_specular":{
					"specularColorFactor":[
						2.0,
						2.0,
						2.0
					]
				}
			},
			"name":"material_3",
			"pbrMetallicRoughness":{
				"baseColorTexture":{
					"index":3
				},
				"metallicFactor":0
			}
		},
		{
			"doubleSided":true,
			"extensions":{
				"KHR_materials_specular":{
					"specularColorFactor":[
						2.0,
						2.0,
						2.0
					]
				}
			},
			"name":"material_4",
			"pbrMetallicRoughness":{
				"baseColorTexture":{
					"index":4
				},
				"metallicFactor":0
			}
		},
		{
			"doubleSided":true,
			"extensions":{
				"KHR_materials_specular":{
					"specularColorFactor":[
						2.0,
						2.0,
						2.0
					]
				}
			},
			"name":"material_5",
			"pbrMetallicRoughness":{
				"baseColorTexture":{
					"index":5
				},
				"metallicFactor":0
			}
		},
		{
			"doubleSided":true,
			"extensions":{
				"KHR_materials_specular":{
					"specularColorFactor":[
						2.0,
						2.0,
						2.0
					]
				}
			},
			"name":"material_6",
			"pbrMetallicRoughness":{
				"baseColorTexture":{
					"index":6
				},
				"metallicFactor":0
			}
		},
		{
			"doubleSided":true,
			"extensions":{
				"KHR_materials_specular":{
					"specularColorFactor":[
						2.0,
						2.0,
						2.0
					]
				}
			},
			"name":"material_7",
			"pbrMetallicRoughness":{
				"baseColorTexture":{
					"index":7
				},
				"metallicFactor":0
			}
		},
		{
			"doubleSided":true,
			"extensions":{
				"KHR_materials_specular":{
					"specularColorFactor":[
						2.0,
						2.0,
						2.0
					]
				}
			},
			"name":"material_8",
			"pbrMetallicRoughness":{
				"baseColorTexture":{
					"index":8
				},
				"metallicFactor":0
			}
		},
		{
			"doubleSided":true,
			"extensions":{
				"KHR_materials_specular":{
					"specularColorFactor":[
						2.0,
						2.0,
						2.0
					]
				}
			},
			"name":"material_9",
			"pbrMetallicRoughness":{
				"baseColorTexture":{
					"index":9
				},
				"metallicFactor":0
			}
		},
		{
			"doubleSided":true,
			"extensions":{
				"KHR_materials_specular":{
					"specularColorFactor":[
						2.0,
						2.0,
						2.0
					]
				}
			},
			"name":"material_10",
			"pbrMetallicRoughness":{
				"baseColorTexture":{
					"index":10
				},
				"metallicFactor":0
			}
		},
		{
			"doubleSided":true,
			"extensions":{
				"KHR_materials_specular":{
					"specularColorFactor":[
						2.0,
						2.0,
						2.0
					]
				}
			},
			"name":"material_11",
			"pbrMetallicRoughness":{
				"baseColorTexture":{
					"index":11
				},
				"metallicFactor":0
			}
		},
		{
			"doubleSided":true,
			"extensions":{
				"KHR_materials_specular":{
					"specularColorFactor":[
						2.0,
						2.0,
						2.0
					]
				}
			},
			"name":"material_12",
			"pbrMetallicRoughness":{
				"baseColorTexture":{
					"index":12
				},
				"metallicFactor":0
			}
		},
		{
			"doubleSided":true,
			"extensions":{
				"KHR_materials_specular":{
					"specularColorFactor":[
						2.0,
						2.0,
						2.0
					]
				}
			},
			"name":"material_13",
			"pbrMetallicRoughness":{
				"baseColorTexture":{
					"index":13
				},
				"metallicFactor":0
			}
		},
		{
			"alphaMode":"BLEND",
			"doubleSided":true,
			"name":"Material.001",
			"pbrMetallicRoughness":{
				"baseColorFactor":[
					0.4941062033176422,
					0.6808466911315918,
					0.8011963367462158,
					0.2909091114997864
				],
				"metallicFactor":0,
				"roughnessFactor":0.5
			}
		}
	],
	"meshes":[
		{
			"name":"Chapel_Lsp_Altar_and_Beam_Photos_1_mill_4k",
			"primitives":[
				{
					"attributes":{
						"POSITION":0,
						"NORMAL":1,
						"TEXCOORD_0":2
					},
					"indices":3,
					"material":0
				},
				{
					"attributes":{
						"POSITION":4,
						"NORMAL":5,
						"TEXCOORD_0":6
					},
					"indices":7,
					"material":1
				},
				{
					"attributes":{
						"POSITION":8,
						"NORMAL":9,
						"TEXCOORD_0":10
					},
					"indices":11,
					"material":2
				},
				{
					"attributes":{
						"POSITION":12,
						"NORMAL":13,
						"TEXCOORD_0":14
					},
					"indices":15,
					"material":3
				},
				{
					"attributes":{
						"POSITION":16,
						"NORMAL":17,
						"TEXCOORD_0":18
					},
					"indices":19,
					"material":4
				},
				{
					"attributes":{
						"POSITION":20,
						"NORMAL":21,
						"TEXCOORD_0":22
					},
					"indices":23,
					"material":5
				},
				{
					"attributes":{
						"POSITION":24,
						"NORMAL":25,
						"TEXCOORD_0":26
					},
					"indices":27,
					"material":6
				},
				{
					"attributes":{
						"POSITION":28,
						"NORMAL":29,
						"TEXCOORD_0":30
					},
					"indices":31,
					"material":7
				},
				{
					"attributes":{
						"POSITION":32,
						"NORMAL":33,
						"TEXCOORD_0":34
					},
					"indices":35,
					"material":8
				},
				{
					"attributes":{
						"POSITION":36,
						"NORMAL":37,
						"TEXCOORD_0":38
					},
					"indices":39,
					"material":9
				},
				{
					"attributes":{
						"POSITION":40,
						"NORMAL":41,
						"TEXCOORD_0":42
					},
					"indices":43,
					"material":10
				},
				{
					"attributes":{
						"POSITION":44,
						"NORMAL":45,
						"TEXCOORD_0":46
					},
					"indices":47,
					"material":11
				},
				{
					"attributes":{
						"POSITION":48,
						"NORMAL":49,
						"TEXCOORD_0":50
					},
					"indices":51,
					"material":12
				},
				{
					"attributes":{
						"POSITION":52,
						"NORMAL":53,
						"TEXCOORD_0":54
					},
					"indices":55,
					"material":13
				},
				{
					"attributes":{
						"POSITION":56,
						"NORMAL":57,
						"TEXCOORD_0":58
					},
					"indices":59,
					"material":14
				}
			]
		}
	],
	"textures":[
		{
			"sampler":0,
			"source":0
		},
		{
			"sampler":0,
			"source":1
		},
		{
			"sampler":0,
			"source":2
		},
		{
			"sampler":0,
			"source":3
		},
		{
			"sampler":0,
			"source":4
		},
		{
			"sampler":0,
			"source":5
		},
		{
			"sampler":0,
			"source":6
		},
		{
			"sampler":0,
			"source":7
		},
		{
			"sampler":0,
			"source":8
		},
		{
			"sampler":0,
			"source":9
		},
		{
			"sampler":0,
			"source":10
		},
		{
			"sampler":0,
			"source":11
		},
		{
			"sampler":0,
			"source":12
		},
		{
			"sampler":0,
			"source":13
		}
	],
	"images":[
		{
			"mimeType":"image/jpeg",
			"name":"ceiling_Lsps_and_Photo_mesh_u1_v1_diffuse",
			"uri":"ceiling_Lsps_and_Photo_mesh_u1_v1_diffuse.jpg"
		},
		{
			"mimeType":"image/jpeg",
			"name":"All_Souls_Chapel_Model_15_lsp_only_model_1mill_edit_3_u1_v1_diffuse",
			"uri":"All_Souls_Chapel_Model_15_lsp_only_model_1mill_edit_3_u1_v1_diffuse.jpg"
		},
		{
			"mimeType":"image/jpeg",
			"name":"All_Souls_Chapel_Model_15_lsp_only_model_1mill_edit_3_u2_v1_diffuse",
			"uri":"All_Souls_Chapel_Model_15_lsp_only_model_1mill_edit_3_u2_v1_diffuse.jpg"
		},
		{
			"mimeType":"image/jpeg",
			"name":"All_Souls_Chapel_Model_15_lsp_only_model_1mill_edit_3_u3_v1_diffuse",
			"uri":"All_Souls_Chapel_Model_15_lsp_only_model_1mill_edit_3_u3_v1_diffuse.jpg"
		},
		{
			"mimeType":"image/jpeg",
			"name":"All_Souls_Chapel_Model_15_lsp_only_model_1mill_edit_3_u4_v1_diffuse",
			"uri":"All_Souls_Chapel_Model_15_lsp_only_model_1mill_edit_3_u4_v1_diffuse.jpg"
		},
		{
			"mimeType":"image/jpeg",
			"name":"All_Souls_Chapel_Model_15_lsp_only_model_1mill_edit_3_u1_v2_diffuse",
			"uri":"All_Souls_Chapel_Model_15_lsp_only_model_1mill_edit_3_u1_v2_diffuse.jpg"
		},
		{
			"mimeType":"image/jpeg",
			"name":"All_Souls_Chapel_Model_15_lsp_only_model_1mill_edit_3_u2_v2_diffuse",
			"uri":"All_Souls_Chapel_Model_15_lsp_only_model_1mill_edit_3_u2_v2_diffuse.jpg"
		},
		{
			"mimeType":"image/jpeg",
			"name":"All_Souls_Chapel_Model_15_lsp_only_model_1mill_edit_3_u3_v2_diffuse",
			"uri":"All_Souls_Chapel_Model_15_lsp_only_model_1mill_edit_3_u3_v2_diffuse.jpg"
		},
		{
			"mimeType":"image/jpeg",
			"name":"All_Souls_Chapel_Model_15_lsp_only_model_1mill_edit_3_u4_v2_diffuse",
			"uri":"All_Souls_Chapel_Model_15_lsp_only_model_1mill_edit_3_u4_v2_diffuse.jpg"
		},
		{
			"mimeType":"image/jpeg",
			"name":"All_Souls_Chapel_Model_15_lsp_only_model_1mill_edit_3_u1_v3_diffuse",
			"uri":"All_Souls_Chapel_Model_15_lsp_only_model_1mill_edit_3_u1_v3_diffuse.jpg"
		},
		{
			"mimeType":"image/jpeg",
			"name":"All_Souls_Chapel_Model_15_lsp_only_model_1mill_edit_3_u2_v3_diffuse",
			"uri":"All_Souls_Chapel_Model_15_lsp_only_model_1mill_edit_3_u2_v3_diffuse.jpg"
		},
		{
			"mimeType":"image/jpeg",
			"name":"All_Souls_Chapel_Model_15_lsp_only_model_1mill_edit_3_u3_v3_diffuse",
			"uri":"All_Souls_Chapel_Model_15_lsp_only_model_1mill_edit_3_u3_v3_diffuse.jpg"
		},
		{
			"mimeType":"image/jpeg",
			"name":"All_Souls_Chapel_Model_15_lsp_only_model_1mill_edit_3_u4_v3_diffuse",
			"uri":"All_Souls_Chapel_Model_15_lsp_only_model_1mill_edit_3_u4_v3_diffuse.jpg"
		},
		{
			"mimeType":"image/jpeg",
			"name":"Altar_Lsps_and_Photo_mesh_u1_v1_diffuse",
			"uri":"Altar_Lsps_and_Photo_mesh_u1_v1_diffuse.jpg"
		}
	],
	"accessors":[
		{
			"bufferView":0,
			"componentType":5126,
			"count":16711,
			"max":[
				3.063978672027588,
				10.08431625366211,
				1.5283288955688477
			],
			"min":[
				-11.186369895935059,
				0.22773584723472595,
				-9.854740142822266
			],
			"type":"VEC3"
		},
		{
			"bufferView":1,
			"componentType":5126,
			"count":16711,
			"type":"VEC3"
		},
		{
			"bufferView":2,
			"componentType":5126,
			"count":16711,
			"type":"VEC2"
		},
		{
			"bufferView":3,
			"componentType":5123,
			"count":54177,
			"type":"SCALAR"
		},
		{
			"bufferView":4,
			"componentType":5126,
			"count":55535,
			"max":[
				8.851178169250488,
				15.316437721252441,
				8.85339641571045
			],
			"min":[
				-14.732649803161621,
				0.014000709168612957,
				-10.497567176818848
			],
			"type":"VEC3"
		},
		{
			"bufferView":5,
			"componentType":5126,
			"count":55535,
			"type":"VEC3"
		},
		{
			"bufferView":6,
			"componentType":5126,
			"count":55535,
			"type":"VEC2"
		},
		{
			"bufferView":7,
			"componentType":5123,
			"count":131103,
			"type":"SCALAR"
		},
		{
			"bufferView":8,
			"componentType":5126,
			"count":42848,
			"max":[
				8.618660926818848,
				15.632664680480957,
				8.344536781311035
			],
			"min":[
				-14.714614868164062,
				0.016352999955415726,
				-10.546245574951172
			],
			"type":"VEC3"
		},
		{
			"bufferView":9,
			"componentType":5126,
			"count":42848,
			"type":"VEC3"
		},
		{
			"bufferView":10,
			"componentType":5126,
			"count":42848,
			"type":"VEC2"
		},
		{
			"bufferView":11,
			"componentType":5123,
			"count":128967,
			"type":"SCALAR"
		},
		{
			"bufferView":12,
			"componentType":5126,
			"count":23201,
			"max":[
				8.723612785339355,
				14.867362022399902,
				7.846031188964844
			],
			"min":[
				-14.73408317565918,
				0.0373305007815361,
				-10.54265022277832
			],
			"type":"VEC3"
		},
		{
			"bufferView":13,
			"componentType":5126,
			"count":23201,
			"type":"VEC3"
		},
		{
			"bufferView":14,
			"componentType":5126,
			"count":23201,
			"type":"VEC2"
		},
		{
			"bufferView":15,
			"componentType":5123,
			"count":91407,
			"type":"SCALAR"
		},
		{
			"bufferView":16,
			"componentType":5126,
			"count":19510,
			"max":[
				9.398569107055664,
				13.701001167297363,
				7.352042198181152
			],
			"min":[
				-15.000102043151855,
				0.007349533960223198,
				-10.694461822509766
			],
			"type":"VEC3"
		},
		{
			"bufferView":17,
			"componentType":5126,
			"count":19510,
			"type":"VEC3"
		},
		{
			"bufferView":18,
			"componentType":5126,
			"count":19510,
			"type":"VEC2"
		},
		{
			"bufferView":19,
			"componentType":5123,
			"count":81390,
			"type":"SCALAR"
		},
		{
			"bufferView":20,
			"componentType":5126,
			"count":19065,
			"max":[
				8.37157917022705,
				15.616415977478027,
				7.849319934844971
			],
			"min":[
				-13.964624404907227,
				0.052259720861911774,
				-10.020065307617188
			],
			"type":"VEC3"
		},
		{
			"bufferView":21,
			"componentType":5126,
			"count":19065,
			"type":"VEC3"
		},
		{
			"bufferView":22,
			"componentType":5126,
			"count":19065,
			"type":"VEC2"
		},
		{
			"bufferView":23,
			"componentType":5123,
			"count":79278,
			"type":"SCALAR"
		},
		{
			"bufferView":24,
			"componentType":5126,
			"count":19074,
			"max":[
				8.348150253295898,
				13.69149398803711,
				6.732758045196533
			],
			"min":[
				-14.09749984741211,
				0.032251399010419846,
				-10.104585647583008
			],
			"type":"VEC3"
		},
		{
			"bufferView":25,
			"componentType":5126,
			"count":19074,
			"type":"VEC3"
		},
		{
			"bufferView":26,
			"componentType":5126,
			"count":19074,
			"type":"VEC2"
		},
		{
			"bufferView":27,
			"componentType":5123,
			"count":68403,
			"type":"SCALAR"
		},
		{
			"bufferView":28,
			"componentType":5126,
			"count":14869,
			"max":[
				8.37157917022705,
				15.315014839172363,
				6.760749816894531
			],
			"min":[
				-12.6314058303833,
				0.1410871297121048,
				-7.49979305267334
			],
			"type":"VEC3"
		},
		{
			"bufferView":29,
			"componentType":5126,
			"count":14869,
			"type":"VEC3"
		},
		{
			"bufferView":30,
			"componentType":5126,
			"count":14869,
			"type":"VEC2"
		},
		{
			"bufferView":31,
			"componentType":5123,
			"count":56604,
			"type":"SCALAR"
		},
		{
			"bufferView":32,
			"componentType":5126,
			"count":12799,
			"max":[
				8.910918235778809,
				14.67331600189209,
				6.741602897644043
			],
			"min":[
				-12.105524063110352,
				0.214517280459404,
				-10.497567176818848
			],
			"type":"VEC3"
		},
		{
			"bufferView":33,
			"componentType":5126,
			"count":12799,
			"type":"VEC3"
		},
		{
			"bufferView":34,
			"componentType":5126,
			"count":12799,
			"type":"VEC2"
		},
		{
			"bufferView":35,
			"componentType":5123,
			"count":47460,
			"type":"SCALAR"
		},
		{
			"bufferView":36,
			"componentType":5126,
			"count":13612,
			"max":[
				8.34799861907959,
				15.6221923828125,
				6.829714775085449
			],
			"min":[
				-13.494159698486328,
				0.12539853155612946,
				-6.644235610961914
			],
			"type":"VEC3"
		},
		{
			"bufferView":37,
			"componentType":5126,
			"count":13612,
			"type":"VEC3"
		},
		{
			"bufferView":38,
			"componentType":5126,
			"count":13612,
			"type":"VEC2"
		},
		{
			"bufferView":39,
			"componentType":5123,
			"count":53349,
			"type":"SCALAR"
		},
		{
			"bufferView":40,
			"componentType":5126,
			"count":15149,
			"max":[
				7.839331150054932,
				12.517053604125977,
				6.96246337890625
			],
			"min":[
				-13.534598350524902,
				0.04364379495382309,
				-7.263505935668945
			],
			"type":"VEC3"
		},
		{
			"bufferView":41,
			"componentType":5126,
			"count":15149,
			"type":"VEC3"
		},
		{
			"bufferView":42,
			"componentType":5126,
			"count":15149,
			"type":"VEC2"
		},
		{
			"bufferView":43,
			"componentType":5123,
			"count":56271,
			"type":"SCALAR"
		},
		{
			"bufferView":44,
			"componentType":5126,
			"count":23373,
			"max":[
				8.373529434204102,
				15.317727088928223,
				6.858731746673584
			],
			"min":[
				-14.068365097045898,
				0.1377870738506317,
				-10.169677734375
			],
			"type":"VEC3"
		},
		{
			"bufferView":45,
			"componentType":5126,
			"count":23373,
			"type":"VEC3"
		},
		{
			"bufferView":46,
			"componentType":5126,
			"count":23373,
			"type":"VEC2"
		},
		{
			"bufferView":47,
			"componentType":5123,
			"count":88785,
			"type":"SCALAR"
		},
		{
			"bufferView":48,
			"componentType":5126,
			"count":18750,
			"max":[
				8.392961502075195,
				14.636919021606445,
				7.846031188964844
			],
			"min":[
				-14.61280632019043,
				0.028703344985842705,
				-10.546245574951172
			],
			"type":"VEC3"
		},
		{
			"bufferView":49,
			"componentType":5126,
			"count":18750,
			"type":"VEC3"
		},
		{
			"bufferView":50,
			"componentType":5126,
			"count":18750,
			"type":"VEC2"
		},
		{
			"bufferView":51,
			"componentType":5123,
			"count":67764,
			"type":"SCALAR"
		},
		{
			"bufferView":52,
			"componentType":5126,
			"count":10330,
			"max":[
				6.825685501098633,
				2.6721277236938477,
				4.87000846862793
			],
			"min":[
				4.006150245666504,
				0.6990976929664612,
				0.8989943265914917
			],
			"type":"VEC3"
		},
		{
			"bufferView":53,
			"componentType":5126,
			"count":10330,
			"type":"VEC3"
		},
		{
			"bufferView":54,
			"componentType":5126,
			"count":10330,
			"type":"VEC2"
		},
		{
			"bufferView":55,
			"componentType":5123,
			"count":27603,
			"type":"SCALAR"
		},
		{
			"bufferView":56,
			"componentType":5126,
			"count":4722,
			"max":[
				7.639041900634766,
				7.508010387420654,
				5.607845783233643
			],
			"min":[
				-11.36141586303711,
				1.5005826950073242,
				-5.92364501953125
			],
			"type":"VEC3"
		},
		{
			"bufferView":57,
			"componentType":5126,
			"count":4722,
			"type":"VEC3"
		},
		{
			"bufferView":58,
			"componentType":5126,
			"count":4722,
			"type":"VEC2"
		},
		{
			"bufferView":59,
			"componentType":5123,
			"count":18969,
			"type":"SCALAR"
		}
	],
	"bufferViews":[
		{
			"buffer":0,
			"byteLength":200532,
			"byteOffset":0,
			"target":34962
		},
		{
			"buffer":0,
			"byteLength":200532,
			"byteOffset":200532,
			"target":34962
		},
		{
			"buffer":0,
			"byteLength":133688,
			"byteOffset":401064,
			"target":34962
		},
		{
			"buffer":0,
			"byteLength":108354,
			"byteOffset":534752,
			"target":34963
		},
		{
			"buffer":0,
			"byteLength":666420,
			"byteOffset":643108,
			"target":34962
		},
		{
			"buffer":0,
			"byteLength":666420,
			"byteOffset":1309528,
			"target":34962
		},
		{
			"buffer":0,
			"byteLength":444280,
			"byteOffset":1975948,
			"target":34962
		},
		{
			"buffer":0,
			"byteLength":262206,
			"byteOffset":2420228,
			"target":34963
		},
		{
			"buffer":0,
			"byteLength":514176,
			"byteOffset":2682436,
			"target":34962
		},
		{
			"buffer":0,
			"byteLength":514176,
			"byteOffset":3196612,
			"target":34962
		},
		{
			"buffer":0,
			"byteLength":342784,
			"byteOffset":3710788,
			"target":34962
		},
		{
			"buffer":0,
			"byteLength":257934,
			"byteOffset":4053572,
			"target":34963
		},
		{
			"buffer":0,
			"byteLength":278412,
			"byteOffset":4311508,
			"target":34962
		},
		{
			"buffer":0,
			"byteLength":278412,
			"byteOffset":4589920,
			"target":34962
		},
		{
			"buffer":0,
			"byteLength":185608,
			"byteOffset":4868332,
			"target":34962
		},
		{
			"buffer":0,
			"byteLength":182814,
			"byteOffset":5053940,
			"target":34963
		},
		{
			"buffer":0,
			"byteLength":234120,
			"byteOffset":5236756,
			"target":34962
		},
		{
			"buffer":0,
			"byteLength":234120,
			"byteOffset":5470876,
			"target":34962
		},
		{
			"buffer":0,
			"byteLength":156080,
			"byteOffset":5704996,
			"target":34962
		},
		{
			"buffer":0,
			"byteLength":162780,
			"byteOffset":5861076,
			"target":34963
		},
		{
			"buffer":0,
			"byteLength":228780,
			"byteOffset":6023856,
			"target":34962
		},
		{
			"buffer":0,
			"byteLength":228780,
			"byteOffset":6252636,
			"target":34962
		},
		{
			"buffer":0,
			"byteLength":152520,
			"byteOffset":6481416,
			"target":34962
		},
		{
			"buffer":0,
			"byteLength":158556,
			"byteOffset":6633936,
			"target":34963
		},
		{
			"buffer":0,
			"byteLength":228888,
			"byteOffset":6792492,
			"target":34962
		},
		{
			"buffer":0,
			"byteLength":228888,
			"byteOffset":7021380,
			"target":34962
		},
		{
			"buffer":0,
			"byteLength":152592,
			"byteOffset":7250268,
			"target":34962
		},
		{
			"buffer":0,
			"byteLength":136806,
			"byteOffset":7402860,
			"target":34963
		},
		{
			"buffer":0,
			"byteLength":178428,
			"byteOffset":7539668,
			"target":34962
		},
		{
			"buffer":0,
			"byteLength":178428,
			"byteOffset":7718096,
			"target":34962
		},
		{
			"buffer":0,
			"byteLength":118952,
			"byteOffset":7896524,
			"target":34962
		},
		{
			"buffer":0,
			"byteLength":113208,
			"byteOffset":8015476,
			"target":34963
		},
		{
			"buffer":0,
			"byteLength":153588,
			"byteOffset":8128684,
			"target":34962
		},
		{
			"buffer":0,
			"byteLength":153588,
			"byteOffset":8282272,
			"target":34962
		},
		{
			"buffer":0,
			"byteLength":102392,
			"byteOffset":8435860,
			"target":34962
		},
		{
			"buffer":0,
			"byteLength":94920,
			"byteOffset":8538252,
			"target":34963
		},
		{
			"buffer":0,
			"byteLength":163344,
			"byteOffset":8633172,
			"target":34962
		},
		{
			"buffer":0,
			"byteLength":163344,
			"byteOffset":8796516,
			"target":34962
		},
		{
			"buffer":0,
			"byteLength":108896,
			"byteOffset":8959860,
			"target":34962
		},
		{
			"buffer":0,
			"byteLength":106698,
			"byteOffset":9068756,
			"target":34963
		},
		{
			"buffer":0,
			"byteLength":181788,
			"byteOffset":9175456,
			"target":34962
		},
		{
			"buffer":0,
			"byteLength":181788,
			"byteOffset":9357244,
			"target":34962
		},
		{
			"buffer":0,
			"byteLength":121192,
			"byteOffset":9539032,
			"target":34962
		},
		{
			"buffer":0,
			"byteLength":112542,
			"byteOffset":9660224,
			"target":34963
		},
		{
			"buffer":0,
			"byteLength":280476,
			"byteOffset":9772768,
			"target":34962
		},
		{
			"buffer":0,
			"byteLength":280476,
			"byteOffset":10053244,
			"target":34962
		},
		{
			"buffer":0,
			"byteLength":186984,
			"byteOffset":10333720,
			"target":34962
		},
		{
			"buffer":0,
			"byteLength":177570,
			"byteOffset":10520704,
			"target":34963
		},
		{
			"buffer":0,
			"byteLength":225000,
			"byteOffset":10698276,
			"target":34962
		},
		{
			"buffer":0,
			"byteLength":225000,
			"byteOffset":10923276,
			"target":34962
		},
		{
			"buffer":0,
			"byteLength":150000,
			"byteOffset":11148276,
			"target":34962
		},
		{
			"buffer":0,
			"byteLength":135528,
			"byteOffset":11298276,
			"target":34963
		},
		{
			"buffer":0,
			"byteLength":123960,
			"byteOffset":11433804,
			"target":34962
		},
		{
			"buffer":0,
			"byteLength":123960,
			"byteOffset":11557764,
			"target":34962
		},
		{
			"buffer":0,
			"byteLength":82640,
			"byteOffset":11681724,
			"target":34962
		},
		{
			"buffer":0,
			"byteLength":55206,
			"byteOffset":11764364,
			"target":34963
		},
		{
			"buffer":0,
			"byteLength":56664,
			"byteOffset":11819572,
			"target":34962
		},
		{
			"buffer":0,
			"byteLength":56664,
			"byteOffset":11876236,
			"target":34962
		},
		{
			"buffer":0,
			"byteLength":37776,
			"byteOffset":11932900,
			"target":34962
		},
		{
			"buffer":0,
			"byteLength":37938,
			"byteOffset":11970676,
			"target":34963
		}
	],
	"samplers":[
		{
			"magFilter":9729,
			"minFilter":9987
		}
	],
	"buffers":[
		{
			"byteLength":12008616,
			"uri":"chapel%20scan.bin"
		}
	]
}
